<?xml version="1.0" standalone="no"?>
<!DOCTYPE svg PUBLIC "-//W3C//DTD SVG 20010904//EN"
 "http://www.w3.org/TR/2001/REC-SVG-20010904/DTD/svg10.dtd">
<svg version="1.0" xmlns="http://www.w3.org/2000/svg"
 width="124.000000pt" height="135.000000pt" viewBox="0 0 124.000000 135.000000"
 preserveAspectRatio="xMidYMid meet">

<g transform="translate(0.000000,135.000000) scale(0.100000,-0.100000)"
fill="#000000" stroke="none">
<path d="M570 1330 c0 -11 -7 -20 -15 -20 -11 0 -15 -12 -15 -50 0 -36 -4 -50
-14 -50 -17 0 -26 -43 -26 -124 0 -39 -3 -56 -9 -47 -6 10 -11 5 -17 -20 -4
-19 -7 -42 -5 -51 1 -10 -3 -18 -8 -18 -15 0 -14 67 2 73 10 4 10 6 0 6 -7 1
-13 11 -14 24 -2 48 -15 -27 -15 -85 1 -31 -2 -54 -6 -51 -5 2 -7 38 -6 78 1
41 -1 78 -5 82 -4 3 -7 -29 -7 -73 l0 -79 -21 33 c-12 17 -25 32 -29 32 -4 0
-17 -15 -29 -32 l-21 -33 0 79 c0 44 -3 76 -7 73 -4 -4 -6 -41 -5 -82 1 -40
-1 -76 -6 -78 -4 -3 -7 20 -6 51 0 57 -13 132 -15 86 -1 -12 -8 -24 -16 -28
-12 -4 -15 -30 -15 -141 l0 -135 -50 -25 -50 -25 0 94 c0 84 -2 97 -19 106
-25 13 -77 13 -102 0 -18 -10 -19 -24 -18 -313 0 -269 2 -305 18 -332 14 -24
24 -30 51 -30 44 0 68 40 69 112 1 41 5 55 20 63 25 13 184 50 216 50 28 0 30
-13 25 -161 -2 -66 -2 -66 38 -98 29 -23 50 -31 79 -31 l39 0 17 -69 c31 -118
63 -118 94 0 l17 69 39 0 c29 0 50 8 79 31 40 32 40 32 38 98 -5 148 -3 161
25 161 32 0 191 -37 216 -50 15 -8 19 -22 20 -63 1 -72 25 -112 69 -112 27 0
37 6 51 30 16 27 18 63 18 332 1 289 0 303 -18 313 -11 5 -34 10 -51 10 -64 0
-70 -10 -70 -116 l0 -94 -50 25 -50 25 0 135 c0 111 -3 137 -15 141 -8 4 -15
16 -16 28 -2 46 -15 -29 -15 -86 1 -31 -2 -54 -6 -51 -5 2 -7 38 -6 78 1 41
-1 78 -5 82 -4 3 -7 -29 -7 -73 l0 -79 -21 33 c-12 17 -25 32 -29 32 -4 0 -17
-15 -29 -32 l-21 -33 0 79 c0 44 -3 76 -7 73 -4 -4 -6 -41 -5 -82 1 -40 -1
-76 -6 -78 -4 -3 -7 20 -6 51 0 57 -13 133 -15 85 -1 -12 -7 -24 -13 -26 -10
-4 -10 -6 0 -6 15 -1 17 -71 1 -71 -5 0 -9 8 -8 18 2 9 -1 32 -5 51 -6 25 -11
30 -17 20 -6 -9 -9 8 -9 47 0 81 -9 124 -26 124 -10 0 -14 14 -14 50 0 38 -4
50 -15 50 -8 0 -15 9 -15 20 0 17 -7 20 -50 20 -43 0 -50 -3 -50 -20z m60
-265 c0 -8 -4 -15 -10 -15 -5 0 -10 7 -10 15 0 8 5 15 10 15 6 0 10 -7 10 -15z
m-360 -80 c0 -19 -4 -35 -9 -35 -5 0 -9 16 -9 35 0 19 4 35 9 35 5 0 9 -16 9
-35z m718 0 c0 -19 -4 -35 -9 -35 -5 0 -9 16 -9 35 0 19 4 35 9 35 5 0 9 -16
9 -35z m-505 -43 c-7 -2 -13 -10 -13 -18 0 -8 -4 -14 -10 -14 -16 0 -12 27 5
34 8 3 16 18 16 33 l1 28 7 -30 c4 -20 2 -31 -6 -33z m293 1 c16 -6 19 -33 4
-33 -5 0 -10 7 -10 15 0 8 -6 15 -13 15 -10 0 -12 9 -8 33 6 32 6 32 9 4 2
-16 10 -31 18 -34z m-136 -3 c0 -5 -9 -10 -20 -10 -11 0 -20 5 -20 10 0 6 9
10 20 10 11 0 20 -4 20 -10z m-370 -14 c0 -8 -4 -18 -10 -21 -5 -3 -10 3 -10
14 0 12 5 21 10 21 6 0 10 -6 10 -14z m720 -7 c0 -11 -4 -17 -10 -14 -5 3 -10
13 -10 21 0 8 5 14 10 14 6 0 10 -9 10 -21z m-620 -17 c0 -11 -10 -27 -22 -38
-21 -19 -21 -19 -14 1 5 11 11 28 13 38 7 23 23 22 23 -1z m523 1 c2 -10 8
-27 13 -38 7 -20 7 -20 -14 -1 -12 11 -22 27 -22 38 0 23 16 24 23 1z m-626
-33 c-5 -31 -17 -36 -17 -7 0 15 4 27 10 27 5 0 9 -9 7 -20z m723 -7 c0 -29
-12 -24 -17 7 -2 11 2 20 7 20 6 0 10 -12 10 -27z m-410 -43 c0 -5 -4 -10 -9
-10 -6 0 -13 5 -16 10 -3 6 1 10 9 10 9 0 16 -4 16 -10z m105 0 c-3 -5 -10
-10 -16 -10 -5 0 -9 5 -9 10 0 6 7 10 16 10 8 0 12 -4 9 -10z m-335 -291 c-30
-11 -59 -18 -65 -16 -13 5 74 35 100 35 11 1 -5 -8 -35 -19z m103 14 c-7 -2
-19 -2 -25 0 -7 3 -2 5 12 5 14 0 19 -2 13 -5z m360 0 c-7 -2 -19 -2 -25 0 -7
3 -2 5 12 5 14 0 19 -2 13 -5z m103 -10 c27 -9 44 -18 38 -20 -5 -2 -34 5 -64
16 -30 11 -48 20 -39 20 8 1 38 -7 65 -16z m-692 -43 c-5 -5 -25 -12 -44 -15
-35 -5 -35 -5 5 9 50 18 51 18 39 6z m862 -17 c-7 -7 -65 7 -71 17 -3 4 13 3
35 -2 23 -6 39 -13 36 -15z m-446 -13 c0 -5 -9 -10 -20 -10 -11 0 -20 5 -20
10 0 6 9 10 20 10 11 0 20 -4 20 -10z m-43 -67 c-3 -10 -5 -4 -5 12 0 17 2 24
5 18 2 -7 2 -21 0 -30z m50 0 c-3 -10 -5 -4 -5 12 0 17 2 24 5 18 2 -7 2 -21
0 -30z m-17 -218 c0 -19 -4 -35 -10 -35 -5 0 -10 16 -10 35 0 19 5 35 10 35 6
0 10 -16 10 -35z m0 -90 c0 -8 -4 -15 -10 -15 -5 0 -10 7 -10 15 0 8 5 15 10
15 6 0 10 -7 10 -15z"/>
</g>
</svg>
